{
  "source": "C:\\Users\\Peter\\Desktop\\stuff\\MIUN\\quantitative_research\\video_compression\\videos\\BVI-HD\\BVI-HD_CDVL_videos\\ORIG\\BubblesPitcher_1920x1080_60fps.mp4",
  "output": "C:\\Users\\Peter\\Desktop\\stuff\\MIUN\\quantitative_research\\video_compression\\compressed_videos\\BVI-HD\\h264\\2\\BubblesPitcher_1920x1080_60fps_h264.mp4",
  "codec": "h264",
  "ok": "Input #0, mov,mp4,m4a,3gp,3g2,mj2, from 'C:\\Users\\Peter\\Desktop\\stuff\\MIUN\\quantitative_research\\video_compression\\videos\\BVI-HD\\BVI-HD_CDVL_videos\\ORIG\\BubblesPitcher_1920x1080_60fps.mp4':\n  Metadata:\n    major_brand     : isom\n    minor_version   : 512\n    compatible_brands: isomiso2avc1mp41\n    encoder         : Lavf54.28.101\n  Duration: 00:00:05.00, start: 0.000000, bitrate: 188849 kb/s\n  Stream #0:0[0x1](und): Video: h264 (High 4:4:4 Predictive) (avc1 / 0x31637661), yuv420p(progressive), 1920x1080, 188844 kb/s, 60 fps, 60 tbr, 60 tbn (default)\n    Metadata:\n      handler_name    : VideoHandler\n      vendor_id       : [0][0][0][0]\n[out#0/mp4 @ 000002663e191440] Codec AVOption b:a (set bitrate (in bits/s)) has not been used for any stream. The most likely reason is either wrong type (e.g. a video option with no video streams) or that it is a private option of some decoder which was not actually used for any stream.\nStream mapping:\n  Stream #0:0 -> #0:0 (h264 (native) -> h264 (libx264))\nPress [q] to stop, [?] for help\n[libx264 @ 000002663fec2240] using cpu capabilities: MMX2 SSE2Fast SSSE3 SSE4.2 AVX FMA3 BMI2 AVX2\n[libx264 @ 000002663fec2240] profile High, level 5.0, 4:2:0, 8-bit\n[libx264 @ 000002663fec2240] 264 - core 165 r3222 b35605a - H.264/MPEG-4 AVC codec - Copyleft 2003-2025 - http://www.videolan.org/x264.html - options: cabac=1 ref=5 deblock=1:0:0 analyse=0x3:0x113 me=hex subme=8 psy=1 psy_rd=1.00:0.00 mixed_ref=1 me_range=16 chroma_me=1 trellis=2 8x8dct=1 cqm=0 deadzone=21,11 fast_pskip=1 chroma_qp_offset=-2 threads=18 lookahead_threads=3 sliced_threads=0 nr=0 decimate=1 interlaced=0 bluray_compat=0 constrained_intra=0 bframes=3 b_pyramid=2 b_adapt=1 b_bias=0 direct=3 weightb=1 open_gop=0 weightp=2 keyint=250 keyint_min=25 scenecut=40 intra_refresh=0 rc_lookahead=50 rc=cbr mbtree=1 bitrate=2000 ratetol=1.0 qcomp=0.60 qpmin=0 qpmax=69 qpstep=4 vbv_maxrate=2000 vbv_bufsize=2000 nal_hrd=none filler=0 ip_ratio=1.40 aq=1:1.00\nOutput #0, mp4, to 'C:\\Users\\Peter\\Desktop\\stuff\\MIUN\\quantitative_research\\video_compression\\compressed_videos\\BVI-HD\\h264\\2\\BubblesPitcher_1920x1080_60fps_h264.mp4':\n  Metadata:\n    major_brand     : isom\n    minor_version   : 512\n    compatible_brands: isomiso2avc1mp41\n    encoder         : Lavf62.3.100\n  Stream #0:0(und): Video: h264 (avc1 / 0x31637661), yuv420p(tv, progressive), 1920x1080, q=2-31, 2000 kb/s, 60 fps, 15360 tbn (default)\n    Metadata:\n      encoder         : Lavc62.11.100 libx264\n      handler_name    : VideoHandler\n      vendor_id       : [0][0][0][0]\n    Side data:\n      cpb: bitrate max/min/avg: 2000000/0/2000000 buffer size: 2000000 vbv_delay: N/A\nframe=    0 fps=0.0 q=0.0 size=       0KiB time=N/A bitrate=N/A speed=N/A elapsed=0:00:00.51    \nframe=    0 fps=0.0 q=0.0 size=       0KiB time=N/A bitrate=N/A speed=N/A elapsed=0:00:01.10    \nframe=   20 fps= 11 q=34.0 size=       0KiB time=00:00:00.23 bitrate=   1.6kbits/s speed=0.124x elapsed=0:00:01.88    \nframe=   48 fps= 19 q=36.0 size=       0KiB time=00:00:00.63 bitrate=   0.6kbits/s speed=0.244x elapsed=0:00:02.59    \nframe=   74 fps= 22 q=37.0 size=     256KiB time=00:00:01.03 bitrate=2029.9kbits/s speed=0.306x elapsed=0:00:03.37    \nframe=   96 fps= 23 q=39.0 size=     256KiB time=00:00:01.56 bitrate=1338.9kbits/s speed=0.383x elapsed=0:00:04.09    \nframe=  107 fps= 23 q=40.0 size=     256KiB time=00:00:01.75 bitrate=1198.6kbits/s speed=0.374x elapsed=0:00:04.68    \nframe=  109 fps= 21 q=40.0 size=     256KiB time=00:00:01.78 bitrate=1176.2kbits/s speed=0.339x elapsed=0:00:05.26    \nframe=  114 fps= 19 q=41.0 size=     256KiB time=00:00:01.81 bitrate=1154.6kbits/s speed=0.307x elapsed=0:00:05.92    \nframe=  122 fps= 18 q=42.0 size=     256KiB time=00:00:01.98 bitrate=1057.6kbits/s speed=0.299x elapsed=0:00:06.63    \nframe=  131 fps= 18 q=43.0 size=     512KiB time=00:00:02.15 bitrate=1951.0kbits/s speed=0.295x elapsed=0:00:07.28    \nframe=  142 fps= 18 q=44.0 size=     512KiB time=00:00:02.31 bitrate=1810.7kbits/s speed=0.295x elapsed=0:00:07.84    \nframe=  154 fps= 18 q=45.0 size=     512KiB time=00:00:02.53 bitrate=1655.8kbits/s speed=0.302x elapsed=0:00:08.38    \nframe=  164 fps= 18 q=46.0 size=     512KiB time=00:00:02.66 bitrate=1573.0kbits/s speed=0.298x elapsed=0:00:08.94    \nframe=  174 fps= 18 q=47.0 size=     512KiB time=00:00:02.83 bitrate=1480.5kbits/s speed=0.293x elapsed=0:00:09.65    \nframe=  183 fps= 18 q=47.0 size=     768KiB time=00:00:02.98 bitrate=2109.0kbits/s speed=0.288x elapsed=0:00:10.34    \nframe=  192 fps= 18 q=47.0 size=     768KiB time=00:00:03.16 bitrate=1986.9kbits/s speed=0.289x elapsed=0:00:10.94    \nframe=  202 fps= 18 q=48.0 size=     768KiB time=00:00:03.33 bitrate=1887.6kbits/s speed=0.29x elapsed=0:00:11.50    \nframe=  216 fps= 18 q=48.0 size=     768KiB time=00:00:03.53 bitrate=1780.7kbits/s speed=0.293x elapsed=0:00:12.07    \nframe=  226 fps= 18 q=48.0 size=     768KiB time=00:00:03.70 bitrate=1700.5kbits/s speed=0.29x elapsed=0:00:12.77    \nframe=  238 fps= 18 q=48.0 size=    1024KiB time=00:00:03.88 bitrate=2160.3kbits/s speed=0.288x elapsed=0:00:13.46    \nframe=  267 fps= 19 q=48.0 size=    1024KiB time=00:00:04.25 bitrate=1973.9kbits/s speed= 0.3x elapsed=0:00:14.18    \n[mp4 @ 000002663e191540] Starting second pass: moving the moov atom to the beginning of the file\n[out#0/mp4 @ 000002663e191440] video:1251KiB audio:0KiB subtitle:0KiB other streams:0KiB global headers:0KiB muxing overhead: 0.239071%\nframe=  300 fps= 20 q=-1.0 Lsize=    1254KiB time=00:00:04.96 bitrate=2068.6kbits/s speed=0.333x elapsed=0:00:14.90    \n[libx264 @ 000002663fec2240] frame I:2     Avg QP:26.85  size: 11824\n[libx264 @ 000002663fec2240] frame P:207   Avg QP:40.24  size:  4792\n[libx264 @ 000002663fec2240] frame B:91    Avg QP:28.61  size:  2909\n[libx264 @ 000002663fec2240] consecutive B-frames: 59.3%  0.0%  2.0% 38.7%\n[libx264 @ 000002663fec2240] mb I  I16..4: 41.3% 58.3%  0.4%\n[libx264 @ 000002663fec2240] mb P  I16..4:  5.2%  9.8%  0.0%  P16..4: 13.3%  0.6%  0.6%  0.0%  0.0%    skip:70.5%\n[libx264 @ 000002663fec2240] mb B  I16..4:  0.7%  0.8%  0.0%  B16..8: 16.3%  0.7%  0.0%  direct: 1.6%  skip:80.0%  L0:45.1% L1:53.9% BI: 1.0%\n[libx264 @ 000002663fec2240] 8x8 transform intra:64.6% inter:96.9%\n[libx264 @ 000002663fec2240] direct mvs  spatial:89.0% temporal:11.0%\n[libx264 @ 000002663fec2240] coded y,uvDC,uvAC intra: 3.5% 29.2% 1.0% inter: 1.2% 5.1% 0.0%\n[libx264 @ 000002663fec2240] i16 v,h,dc,p: 46% 35%  7% 11%\n[libx264 @ 000002663fec2240] i8 v,h,dc,ddl,ddr,vr,hd,vl,hu:  6%  3% 84%  1%  2%  2%  1%  1%  1%\n[libx264 @ 000002663fec2240] i4 v,h,dc,ddl,ddr,vr,hd,vl,hu: 16%  5% 41%  7% 10%  8%  5%  5%  4%\n[libx264 @ 000002663fec2240] i8c dc,h,v,p: 79% 12%  8%  1%\n[libx264 @ 000002663fec2240] Weighted P-Frames: Y:0.5% UV:0.5%\n[libx264 @ 000002663fec2240] ref P L0: 44.1%  4.3% 19.8% 11.0% 10.8% 10.0%\n[libx264 @ 000002663fec2240] ref B L0: 72.0% 17.2%  8.1%  2.7%\n[libx264 @ 000002663fec2240] ref B L1: 92.6%  7.4%\n[libx264 @ 000002663fec2240] kb/s:2048.72\n",
  "seconds": 15.52076268196106,
  "probe_out": {}
}